<svg width="768" height="183" fill="none" xmlns="http://www.w3.org/2000/svg"><g filter="url(#filter0_i_2864_340)"><path d="M108.339 15.105A38 38 0 01138.668 0H730c20.987 0 38 17.013 38 38v106.461c0 20.986-17.013 38-38 38H18.142c-14.86 0-23.319-16.987-14.366-28.846l104.563-138.51z" fill="#F1F1F1"/></g><path d="M138.668 1.5H730c20.158 0 36.5 16.342 36.5 36.5v106.461c0 20.158-16.342 36.5-36.5 36.5H18.142c-13.621 0-21.376-15.571-13.17-26.442l104.564-138.51A36.501 36.501 0 01138.668 1.5z" stroke="#7AB986" stroke-width="3"/><defs><filter id="filter0_i_2864_340" x=".109" y="0" width="767.891" height="186.461" filterUnits="userSpaceOnUse" color-interpolation-filters="sRGB"><feFlood flood-opacity="0" result="BackgroundImageFix"/><feBlend in="SourceGraphic" in2="BackgroundImageFix" result="shape"/><feColorMatrix in="SourceAlpha" values="0 0 0 0 0 0 0 0 0 0 0 0 0 0 0 0 0 0 127 0" result="hardAlpha"/><feOffset dy="4"/><feGaussianBlur stdDeviation="2"/><feComposite in2="hardAlpha" operator="arithmetic" k2="-1" k3="1"/><feColorMatrix values="0 0 0 0 0 0 0 0 0 0 0 0 0 0 0 0 0 0 0.25 0"/><feBlend in2="shape" result="effect1_innerShadow_2864_340"/></filter></defs></svg>