<svg width="349" height="157" fill="none" xmlns="http://www.w3.org/2000/svg"><g filter="url(#filter0_i_2945_4)" fill="#F1F1F1"><path d="M5.282 19.234C5.694 8.494 14.52 0 25.267 0H324.33c10.781 0 19.622 8.545 19.989 19.32l3.979 117c.384 11.306-8.677 20.68-19.989 20.68H20.782C9.434 157 .361 147.572.795 136.234l4.486-117z"/><path d="M5.282 19.234C5.694 8.494 14.52 0 25.267 0H324.33c10.781 0 19.622 8.545 19.989 19.32l3.979 117c.384 11.306-8.677 20.68-19.989 20.68H20.782C9.434 157 .361 147.572.795 136.234l4.486-117z"/></g><path d="M6.48 19.28C6.867 9.184 15.164 1.198 25.267 1.198H324.33c10.135 0 18.446 8.034 18.791 18.163l3.979 117c.361 10.628-8.156 19.441-18.791 19.441H20.782c-10.667 0-19.197-8.864-18.788-19.522l4.486-117z" stroke="#7AB986" stroke-width="2.397"/><defs><filter id="filter0_i_2945_4" x=".781" y="0" width="347.527" height="160.196" filterUnits="userSpaceOnUse" color-interpolation-filters="sRGB"><feFlood flood-opacity="0" result="BackgroundImageFix"/><feBlend in="SourceGraphic" in2="BackgroundImageFix" result="shape"/><feColorMatrix in="SourceAlpha" values="0 0 0 0 0 0 0 0 0 0 0 0 0 0 0 0 0 0 127 0" result="hardAlpha"/><feOffset dy="3.196"/><feGaussianBlur stdDeviation="1.598"/><feComposite in2="hardAlpha" operator="arithmetic" k2="-1" k3="1"/><feColorMatrix values="0 0 0 0 0 0 0 0 0 0 0 0 0 0 0 0 0 0 0.25 0"/><feBlend in2="shape" result="effect1_innerShadow_2945_4"/></filter></defs></svg>