<svg width="84" height="39" fill="none" xmlns="http://www.w3.org/2000/svg"><path d="M22.726 3.265h54.02v31.294h-54.02V3.265z" fill="#74B788"/><path d="M22.725 25.873a6.333 6.333 0 100-12.667v12.667z" fill="#E0D127"/><path d="M57 25.873a6.333 6.333 0 100-12.667v12.667z" fill="#2889A3"/><path d="M10.7 15.456c-.075-.711-.395-1.264-.96-1.66-.558-.396-1.285-.595-2.18-.595-.63 0-1.17.095-1.62.285-.45.19-.795.448-1.033.773a1.88 1.88 0 00-.366 1.115c0 .347.078.648.236.903.162.255.382.472.659.651.276.174.583.32.92.44.336.12.675.22 1.016.3l1.563.392c.629.146 1.234.344 1.814.594.586.249 1.11.564 1.57.943.467.38.836.839 1.108 1.376.27.537.406 1.166.406 1.887 0 .977-.25 1.837-.748 2.58-.5.738-1.22 1.316-2.165 1.733-.938.413-2.075.619-3.41.619-1.296 0-2.421-.201-3.376-.603-.95-.4-1.693-.987-2.23-1.757-.532-.77-.819-1.709-.862-2.816h2.97c.043.58.222 1.064.537 1.449a2.84 2.84 0 001.228.862c.51.19 1.08.285 1.71.285.656 0 1.23-.098 1.724-.293.5-.2.89-.477 1.172-.83.282-.358.426-.775.432-1.253-.006-.434-.133-.792-.383-1.074-.25-.288-.6-.526-1.05-.716a10.115 10.115 0 00-1.562-.52l-1.896-.49c-1.373-.352-2.458-.886-3.255-1.602-.792-.722-1.188-1.68-1.188-2.873 0-.982.266-1.841.797-2.58.538-.737 1.267-1.31 2.19-1.716.922-.413 1.966-.619 3.132-.619 1.183 0 2.219.206 3.109.619.895.407 1.597.974 2.107 1.7.51.722.773 1.552.79 2.49H10.7zm20.143 3.75c0 1.797-.336 3.334-1.009 4.615-.667 1.274-1.578 2.251-2.734 2.93-1.15.677-2.455 1.016-3.914 1.016-1.46 0-2.767-.339-3.922-1.017-1.15-.683-2.062-1.663-2.734-2.938-.668-1.28-1.001-2.815-1.001-4.605 0-1.796.334-3.331 1-4.606.673-1.28 1.585-2.26 2.735-2.938 1.155-.678 2.463-1.017 3.922-1.017 1.46 0 2.764.34 3.914 1.018 1.156.678 2.067 1.657 2.734 2.937.673 1.275 1.01 2.81 1.01 4.606zm-3.035 0c0-1.263-.198-2.33-.594-3.197-.39-.873-.933-1.533-1.627-1.978-.695-.45-1.495-.675-2.401-.675-.906 0-1.706.225-2.4.675-.695.445-1.24 1.104-1.636 1.978-.39.868-.586 1.934-.586 3.198s.195 2.332.586 3.206c.396.868.941 1.527 1.636 1.977.694.445 1.494.668 2.4.668.906 0 1.706-.223 2.4-.668.695-.45 1.237-1.11 1.628-1.977.396-.873.594-1.942.594-3.206zm5.316 8.333V10.874h3.02v7.055h7.722v-7.055h3.027V27.54h-3.027v-7.08h-7.722v7.08h-3.02zm31.37-8.332c0 1.796-.336 3.333-1.008 4.614-.668 1.274-1.579 2.251-2.734 2.93-1.15.677-2.455 1.016-3.915 1.016-1.459 0-2.766-.339-3.922-1.017-1.15-.683-2.061-1.663-2.734-2.938-.667-1.28-1-2.815-1-4.605 0-1.796.333-3.331 1-4.606.673-1.28 1.584-2.26 2.734-2.938 1.156-.678 2.463-1.017 3.922-1.017 1.46 0 2.764.34 3.914 1.018 1.156.678 2.067 1.657 2.735 2.937.672 1.275 1.009 2.81 1.009 4.606zm-3.035 0c0-1.264-.198-2.33-.594-3.198-.39-.873-.933-1.533-1.627-1.978-.694-.45-1.495-.675-2.4-.675-.907 0-1.707.225-2.401.675-.694.445-1.24 1.104-1.636 1.978-.39.868-.586 1.934-.586 3.198s.196 2.332.586 3.206c.396.868.942 1.527 1.636 1.977.694.445 1.495.668 2.4.668.906 0 1.707-.223 2.401-.668.694-.45 1.237-1.11 1.627-1.977.396-.873.594-1.942.594-3.206zm15.639 12.166h-9.64v-1.746h8.176V25.38h1.464v5.992zm-9.64-7.176V22.06l6.985-2.861v-.113l-6.985-2.862v-2.137h9.64v1.676h-6.623v.09l6.594 2.663v1.252l-6.608 2.664v.09h6.637v1.675h-9.64zm2.65-16.918c-.41.044-.73.229-.96.555-.229.323-.343.744-.343 1.261 0 .364.054.677.164.937.11.26.26.46.447.598.189.138.404.208.645.212a.978.978 0 00.523-.137 1.25 1.25 0 00.376-.381c.1-.16.185-.337.254-.532.07-.194.127-.39.174-.588l.226-.904c.085-.364.2-.714.344-1.05.144-.338.326-.641.546-.908.22-.27.485-.483.795-.64.311-.157.675-.235 1.092-.235.565 0 1.063.144 1.492.433.427.288.761.706 1.003 1.252.238.542.358 1.2.358 1.972 0 .75-.117 1.4-.349 1.953-.232.55-.57.979-1.016 1.29-.446.307-.989.473-1.629.498v-1.717c.336-.025.615-.13.838-.311.223-.182.389-.419.499-.71a2.82 2.82 0 00.165-.99 2.7 2.7 0 00-.17-.997 1.617 1.617 0 00-.48-.678 1.16 1.16 0 00-.725-.25.921.921 0 00-.621.222 1.62 1.62 0 00-.414.607 5.85 5.85 0 00-.302.904l-.282 1.096c-.204.794-.513 1.422-.927 1.883-.417.458-.971.687-1.662.687-.567 0-1.065-.153-1.492-.46a3.073 3.073 0 01-.993-1.267c-.238-.533-.357-1.137-.357-1.812 0-.684.119-1.283.357-1.798.236-.518.564-.924.984-1.219a2.511 2.511 0 011.44-.457v1.68z" fill="#000"/></svg>