<svg width="67" height="75" fill="none" xmlns="http://www.w3.org/2000/svg"><path d="M.703 71.677V-1.87H67v73.548c0 1.418-21.754-10.633-32.63-16.836L.703 71.677z" fill="#D2AA46"/><mask id="mask0_2930_318" style="mask-type:alpha" maskUnits="userSpaceOnUse" x="25" y="0" width="42" height="75"><path fill="#D9D9D9" d="M25 0h42v75H25z"/></mask><g mask="url(#mask0_2930_318)"><path d="M.703 71.677V-1.87H67v73.548c0 1.418-21.754-10.633-32.63-16.836L.703 71.677z" fill="#B88C21"/></g><path d="M14.624 30.187H8.282l.193-.18v2.81h-.58v-5.904h.58v2.81l-.193-.18h6.342v.644zm.052-7.02c0 .644-.146 1.22-.439 1.727a3.309 3.309 0 01-1.212 1.199c-.515.292-1.104.438-1.766.438-.67 0-1.259-.146-1.766-.438-.515-.301-.92-.7-1.211-1.2-.293-.506-.439-1.082-.439-1.727 0-.644.146-1.22.439-1.727a3.184 3.184 0 011.211-1.2c.507-.291 1.096-.437 1.766-.437.662 0 1.25.146 1.766.438.516.292.92.692 1.212 1.199.293.507.439 1.083.439 1.727zm-.58 0c0-.516-.117-.98-.349-1.393a2.532 2.532 0 00-1.005-.967c-.43-.232-.924-.348-1.483-.348-.567 0-1.06.116-1.482.348-.43.232-.76.555-.993.967-.24.412-.36.877-.36 1.392 0 .516.12.98.36 1.392.232.404.563.727.993.967.421.232.915.348 1.482.348.56 0 1.053-.116 1.483-.348.43-.24.765-.563 1.005-.966a2.79 2.79 0 00.348-1.393zm.528-5.465h-6.73v-5.878h6.73v.645H8.282l.193-.18v4.95l-.193-.181h6.342v.645zm-2.258 26.19h4.77v.812h-4.77v-.812zm.104 4.164h5.427v.825h-6.381v-9.024h6.187v.825H12.47v7.374zm10.07.89a3.467 3.467 0 01-1.741-.439 3.183 3.183 0 01-1.199-1.211c-.292-.525-.438-1.126-.438-1.805 0-.688.146-1.29.438-1.805a3.09 3.09 0 011.199-1.199 3.467 3.467 0 011.74-.438c.593 0 1.122.133 1.586.4.473.266.846.657 1.121 1.173.284.507.426 1.13.426 1.869 0 .73-.138 1.353-.413 1.869a2.931 2.931 0 01-1.121 1.186c-.464.266-.997.4-1.599.4zm.064-.813c.48 0 .91-.107 1.289-.322.386-.223.687-.533.902-.928.224-.404.335-.868.335-1.392 0-.533-.111-.997-.335-1.392a2.257 2.257 0 00-.902-.916 2.486 2.486 0 00-1.29-.335c-.472 0-.897.112-1.276.335-.378.215-.679.52-.902.916-.223.395-.335.859-.335 1.392 0 .524.112.988.335 1.392.223.395.524.705.902.928a2.54 2.54 0 001.277.322zm2.552.748v-2.037l.09-1.366-.129-1.367v-4.795h.916v9.565h-.877zm5.372 0v-8.199h-3.171v-.825h7.296v.825h-3.17v8.2h-.955zm7.626.065c-.705 0-1.324-.146-1.857-.439-.532-.3-.95-.709-1.25-1.224-.3-.525-.451-1.122-.451-1.792 0-.67.142-1.264.425-1.78a3.205 3.205 0 011.186-1.21 3.271 3.271 0 011.702-.452c.636 0 1.199.146 1.688.438.499.284.89.688 1.174 1.212.283.516.425 1.113.425 1.792 0 .043-.004.09-.013.142v.141h-5.891v-.683h5.401l-.36.27c0-.489-.108-.923-.323-1.301a2.267 2.267 0 00-.85-.903 2.398 2.398 0 00-1.251-.322c-.464 0-.881.108-1.25.322a2.24 2.24 0 00-.864.903c-.207.387-.31.83-.31 1.328v.142c0 .515.112.97.335 1.366.233.387.55.692.954.915.413.215.881.322 1.405.322.413 0 .795-.073 1.148-.219a2.4 2.4 0 00.928-.67l.516.593a2.91 2.91 0 01-1.135.825c-.447.19-.94.284-1.482.284zm7.715 0c-.67 0-1.272-.146-1.804-.439a3.32 3.32 0 01-1.238-1.224c-.3-.525-.451-1.122-.451-1.792 0-.68.15-1.276.45-1.792.302-.516.714-.92 1.239-1.212.532-.292 1.134-.438 1.804-.438a3.55 3.55 0 011.56.335c.464.224.83.559 1.096 1.006l-.683.464a2.149 2.149 0 00-.864-.76 2.58 2.58 0 00-1.122-.246c-.48 0-.915.112-1.302.335-.386.215-.692.52-.915.916-.223.395-.335.859-.335 1.392 0 .533.112.997.335 1.392.223.395.529.705.915.928.387.215.821.322 1.302.322a2.58 2.58 0 001.122-.245 2.18 2.18 0 00.864-.747l.683.464a2.635 2.635 0 01-1.096 1.005 3.55 3.55 0 01-1.56.336zm7.808-6.897c.55 0 1.031.107 1.444.322.42.206.747.524.98.954.24.43.36.971.36 1.624v3.932h-.915V45.04c0-.714-.18-1.25-.541-1.612-.353-.37-.851-.554-1.496-.554-.48 0-.902.099-1.263.296a1.99 1.99 0 00-.825.838c-.19.361-.284.8-.284 1.315v3.558h-.915v-9.565h.915v4.654l-.18-.348c.215-.49.559-.873 1.031-1.148.473-.283 1.036-.425 1.689-.425zM20.406 30.654V12.422l1.188 1.298H16.04v-2.403h7.1v19.337h-2.735zm14.864.22c-1.51 0-2.863-.386-4.06-1.16-1.179-.773-2.118-1.897-2.818-3.37-.681-1.473-1.022-3.26-1.022-5.359 0-2.1.34-3.886 1.022-5.359.7-1.473 1.64-2.596 2.818-3.37 1.197-.773 2.55-1.16 4.06-1.16 1.492 0 2.836.387 4.033 1.16 1.198.774 2.137 1.897 2.818 3.37s1.022 3.26 1.022 5.36c0 2.098-.34 3.885-1.022 5.358-.681 1.473-1.62 2.597-2.818 3.37-1.197.774-2.54 1.16-4.032 1.16zm0-2.458c1.013 0 1.897-.276 2.652-.829.774-.552 1.372-1.381 1.796-2.486.442-1.105.663-2.477.663-4.116 0-1.639-.221-3.01-.663-4.116-.424-1.105-1.022-1.934-1.796-2.486-.755-.552-1.639-.829-2.651-.829-1.013 0-1.907.277-2.68.83-.774.551-1.381 1.38-1.823 2.485-.424 1.105-.636 2.477-.636 4.116 0 1.64.212 3.011.636 4.116.442 1.105 1.05 1.934 1.823 2.486.773.553 1.667.829 2.68.829zm18.425 2.458c-1.51 0-2.863-.386-4.06-1.16-1.179-.773-2.118-1.897-2.818-3.37-.681-1.473-1.022-3.26-1.022-5.359 0-2.1.34-3.886 1.022-5.359.7-1.473 1.639-2.596 2.818-3.37 1.197-.773 2.55-1.16 4.06-1.16 1.492 0 2.836.387 4.033 1.16 1.197.774 2.137 1.897 2.818 3.37s1.022 3.26 1.022 5.36c0 2.098-.34 3.885-1.022 5.358-.681 1.473-1.62 2.597-2.818 3.37-1.197.774-2.541 1.16-4.033 1.16zm0-2.458c1.013 0 1.897-.276 2.652-.829.774-.552 1.372-1.381 1.796-2.486.442-1.105.663-2.477.663-4.116 0-1.639-.221-3.01-.663-4.116-.424-1.105-1.022-1.934-1.796-2.486-.755-.552-1.639-.829-2.652-.829-1.013 0-1.906.277-2.68.83-.773.551-1.38 1.38-1.822 2.485-.424 1.105-.636 2.477-.636 4.116 0 1.64.212 3.011.636 4.116.442 1.105 1.05 1.934 1.823 2.486.773.553 1.666.829 2.68.829z" fill="#fff"/></svg>