<svg width="768" height="183" viewBox="0 0 768 183" fill="none" xmlns="http://www.w3.org/2000/svg">
<g filter="url(#filter0_i_2864_340)">
<path d="M108.339 15.1047C115.52 5.59216 126.749 0 138.668 0H730C750.987 0 768 17.0132 768 38V144.461C768 165.447 750.987 182.461 730 182.461H18.1416C3.28278 182.461 -5.17698 165.474 3.77557 153.615L108.339 15.1047Z" fill="#F1F1F1"/>
</g>
<path d="M138.668 1.5H730C750.158 1.5 766.5 17.8416 766.5 38V144.461C766.5 164.619 750.158 180.961 730 180.961H18.1416C4.52102 180.961 -3.23376 165.39 4.97274 154.519L109.536 16.0085C116.434 6.87141 127.219 1.5 138.668 1.5Z" stroke="#7AB986" stroke-width="3"/>
<defs>
<filter id="filter0_i_2864_340" x="0.108887" y="0" width="767.891" height="186.461" filterUnits="userSpaceOnUse" color-interpolation-filters="sRGB">
<feFlood flood-opacity="0" result="BackgroundImageFix"/>
<feBlend mode="normal" in="SourceGraphic" in2="BackgroundImageFix" result="shape"/>
<feColorMatrix in="SourceAlpha" type="matrix" values="0 0 0 0 0 0 0 0 0 0 0 0 0 0 0 0 0 0 127 0" result="hardAlpha"/>
<feOffset dy="4"/>
<feGaussianBlur stdDeviation="2"/>
<feComposite in2="hardAlpha" operator="arithmetic" k2="-1" k3="1"/>
<feColorMatrix type="matrix" values="0 0 0 0 0 0 0 0 0 0 0 0 0 0 0 0 0 0 0.25 0"/>
<feBlend mode="normal" in2="shape" result="effect1_innerShadow_2864_340"/>
</filter>
</defs>
</svg>
