<svg width="349" height="157" viewBox="0 0 349 157" fill="none" xmlns="http://www.w3.org/2000/svg">
<g filter="url(#filter0_i_2945_4)">
<path d="M5.28209 19.2338C5.69386 8.4941 14.5199 0 25.2674 0L324.329 0C335.11 0 343.951 8.54535 344.318 19.3202L348.297 136.32C348.681 147.626 339.62 157 328.308 157H20.7815C9.43532 157 0.361493 147.572 0.796199 136.234L5.28209 19.2338Z" fill="#F1F1F1"/>
<path d="M5.28209 19.2338C5.69386 8.4941 14.5199 0 25.2674 0L324.329 0C335.11 0 343.951 8.54535 344.318 19.3202L348.297 136.32C348.681 147.626 339.62 157 328.308 157H20.7815C9.43532 157 0.361493 147.572 0.796199 136.234L5.28209 19.2338Z" fill="#F1F1F1"/>
</g>
<path d="M6.47969 19.2797C6.86678 9.18358 15.1639 1.19847 25.2674 1.19847H324.329C334.464 1.19847 342.775 9.23176 343.12 19.361L347.099 136.361C347.46 146.989 338.943 155.802 328.308 155.802H20.7815C10.1152 155.802 1.58514 146.938 1.99379 136.28L6.47969 19.2797Z" stroke="#7AB986" stroke-width="2.39695"/>
<defs>
<filter id="filter0_i_2945_4" x="0.78125" y="0" width="347.527" height="160.196" filterUnits="userSpaceOnUse" color-interpolation-filters="sRGB">
<feFlood flood-opacity="0" result="BackgroundImageFix"/>
<feBlend mode="normal" in="SourceGraphic" in2="BackgroundImageFix" result="shape"/>
<feColorMatrix in="SourceAlpha" type="matrix" values="0 0 0 0 0 0 0 0 0 0 0 0 0 0 0 0 0 0 127 0" result="hardAlpha"/>
<feOffset dy="3.19593"/>
<feGaussianBlur stdDeviation="1.59796"/>
<feComposite in2="hardAlpha" operator="arithmetic" k2="-1" k3="1"/>
<feColorMatrix type="matrix" values="0 0 0 0 0 0 0 0 0 0 0 0 0 0 0 0 0 0 0.25 0"/>
<feBlend mode="normal" in2="shape" result="effect1_innerShadow_2945_4"/>
</filter>
</defs>
</svg>
