<svg width="84" height="39" viewBox="0 0 84 39" fill="none" xmlns="http://www.w3.org/2000/svg">
<path d="M22.7256 3.26489H76.7452V34.559H22.7256V3.26489Z" fill="#74B788"/>
<path d="M22.7253 25.8727C24.405 25.8727 26.0159 25.2055 27.2036 24.0177C28.3913 22.83 29.0586 21.2191 29.0586 19.5394C29.0586 17.8597 28.3913 16.2488 27.2036 15.061C26.0159 13.8733 24.405 13.2061 22.7253 13.2061L22.7253 19.5394V25.8727Z" fill="#E0D127"/>
<path d="M56.9997 25.8727C58.6794 25.8727 60.2903 25.2055 61.478 24.0177C62.6657 22.83 63.333 21.2191 63.333 19.5394C63.333 17.8597 62.6657 16.2488 61.478 15.061C60.2903 13.8733 58.6794 13.2061 56.9997 13.2061L56.9997 19.5394V25.8727Z" fill="#2889A3"/>
<path d="M10.7006 15.4555C10.6246 14.7449 10.3045 14.1915 9.74036 13.7955C9.18159 13.3995 8.45466 13.2015 7.55956 13.2015C6.93027 13.2015 6.3905 13.2964 5.94023 13.4863C5.48997 13.6762 5.14549 13.9339 4.9068 14.2593C4.6681 14.5848 4.54604 14.9564 4.54062 15.3742C4.54062 15.7213 4.61928 16.0224 4.7766 16.2774C4.93935 16.5324 5.15905 16.7494 5.43572 16.9284C5.71239 17.102 6.01889 17.2484 6.35524 17.3678C6.69158 17.4871 7.03063 17.5875 7.3724 17.6689L8.93476 18.0595C9.56405 18.2059 10.1689 18.4039 10.7494 18.6535C11.3353 18.903 11.8588 19.2177 12.3199 19.5974C12.7864 19.9772 13.1553 20.4356 13.4266 20.9726C13.6978 21.5097 13.8334 22.139 13.8334 22.8605C13.8334 23.837 13.5839 24.6968 13.0848 25.44C12.5857 26.1778 11.8642 26.7555 10.9203 27.1732C9.98176 27.5855 8.84525 27.7917 7.51073 27.7917C6.21419 27.7917 5.08853 27.591 4.13375 27.1895C3.1844 26.7881 2.44119 26.2022 1.90413 25.4319C1.37249 24.6615 1.08497 23.723 1.04158 22.6164H4.01169C4.05509 23.1968 4.23411 23.6796 4.54875 24.0648C4.8634 24.45 5.27297 24.7375 5.77749 24.9274C6.28743 25.1172 6.85704 25.2122 7.48632 25.2122C8.14273 25.2122 8.71777 25.1145 9.21143 24.9192C9.71052 24.7185 10.1011 24.4418 10.3832 24.0892C10.6653 23.7312 10.8091 23.3135 10.8145 22.8361C10.8091 22.4021 10.6816 22.044 10.432 21.7619C10.1825 21.4744 9.83258 21.2357 9.38231 21.0459C8.93748 20.8506 8.41669 20.677 7.81995 20.5251L5.92396 20.0368C4.55147 19.6842 3.46649 19.1499 2.66904 18.4338C1.87701 17.7123 1.48099 16.7548 1.48099 15.5613C1.48099 14.5794 1.74681 13.7196 2.27845 12.9818C2.81551 12.244 3.54515 11.6717 4.46738 11.2648C5.38961 10.8525 6.4339 10.6464 7.60024 10.6464C8.78287 10.6464 9.81902 10.8525 10.7087 11.2648C11.6038 11.6717 12.3063 12.2386 12.8163 12.9655C13.3262 13.687 13.5893 14.517 13.6056 15.4555H10.7006ZM30.8432 19.2068C30.8432 21.0025 30.5069 22.5404 29.8342 23.8207C29.167 25.0955 28.2556 26.072 27.1001 26.7501C25.95 27.4282 24.6453 27.7673 23.186 27.7673C21.7267 27.7673 20.4194 27.4282 19.2639 26.7501C18.1138 26.0666 17.2024 25.0874 16.5297 23.8125C15.8625 22.5323 15.5288 20.997 15.5288 19.2068C15.5288 17.4112 15.8625 15.876 16.5297 14.6011C17.2024 13.3208 18.1138 12.3417 19.2639 11.6635C20.4194 10.9854 21.7267 10.6464 23.186 10.6464C24.6453 10.6464 25.95 10.9854 27.1001 11.6635C28.2556 12.3417 29.167 13.3208 29.8342 14.6011C30.5069 15.876 30.8432 17.4112 30.8432 19.2068ZM27.808 19.2068C27.808 17.9428 27.61 16.8768 27.214 16.0089C26.8234 15.1355 26.2809 14.4763 25.5865 14.0315C24.8922 13.5812 24.092 13.3561 23.186 13.3561C22.2801 13.3561 21.4799 13.5812 20.7855 14.0315C20.0911 14.4763 19.5459 15.1355 19.1499 16.0089C18.7593 16.8768 18.564 17.9428 18.564 19.2068C18.564 20.4708 18.7593 21.5395 19.1499 22.4129C19.5459 23.2809 20.0911 23.94 20.7855 24.3903C21.4799 24.8351 22.2801 25.0576 23.186 25.0576C24.092 25.0576 24.8922 24.8351 25.5865 24.3903C26.2809 23.94 26.8234 23.2809 27.214 22.4129C27.61 21.5395 27.808 20.4708 27.808 19.2068ZM33.1245 27.5394V10.8742H36.1435V17.9293H43.8658V10.8742H46.8929V27.5394H43.8658V20.46H36.1435V27.5394H33.1245ZM64.4947 19.2068C64.4947 21.0025 64.1583 22.5404 63.4856 23.8207C62.8184 25.0955 61.907 26.072 60.7515 26.7501C59.6014 27.4282 58.2968 27.7673 56.8375 27.7673C55.3782 27.7673 54.0708 27.4282 52.9153 26.7501C51.7652 26.0666 50.8538 25.0874 50.1811 23.8125C49.5139 22.5323 49.1803 20.997 49.1803 19.2068C49.1803 17.4112 49.5139 15.876 50.1811 14.6011C50.8538 13.3208 51.7652 12.3417 52.9153 11.6635C54.0708 10.9854 55.3782 10.6464 56.8375 10.6464C58.2968 10.6464 59.6014 10.9854 60.7515 11.6635C61.907 12.3417 62.8184 13.3208 63.4856 14.6011C64.1583 15.876 64.4947 17.4112 64.4947 19.2068ZM61.4595 19.2068C61.4595 17.9428 61.2614 16.8768 60.8654 16.0089C60.4748 15.1355 59.9324 14.4763 59.238 14.0315C58.5436 13.5812 57.7434 13.3561 56.8375 13.3561C55.9315 13.3561 55.1313 13.5812 54.437 14.0315C53.7426 14.4763 53.1974 15.1355 52.8014 16.0089C52.4108 16.8768 52.2155 17.9428 52.2155 19.2068C52.2155 20.4708 52.4108 21.5395 52.8014 22.4129C53.1974 23.2809 53.7426 23.94 54.437 24.3903C55.1313 24.8351 55.9315 25.0576 56.8375 25.0576C57.7434 25.0576 58.5436 24.8351 59.238 24.3903C59.9324 23.94 60.4748 23.2809 60.8654 22.4129C61.2614 21.5395 61.4595 20.4708 61.4595 19.2068Z" fill="black"/>
<path d="M77.0977 31.373H67.4584V29.6268L75.6339 29.6268V25.3814L77.0977 25.3814V31.373ZM67.4584 24.1972V22.0604L74.4431 19.1988V19.0858L67.4584 16.2242V14.0874H77.0977V15.7629H70.4754V15.8524L77.0694 18.5163V19.7683L70.4613 22.4322V22.5217L77.0977 22.5217V24.1972L67.4584 24.1972ZM70.1083 7.27874C69.6972 7.32267 69.3772 7.50779 69.1481 7.83412C68.9191 8.15731 68.8045 8.57777 68.8045 9.0955C68.8045 9.45948 68.8595 9.77169 68.9693 10.0321C69.0791 10.2926 69.2281 10.4918 69.4164 10.6299C69.6047 10.7679 69.8196 10.8385 70.0612 10.8417C70.262 10.8417 70.4362 10.7962 70.5837 10.7052C70.7311 10.611 70.8566 10.484 70.9602 10.3239C71.0606 10.1639 71.1453 9.98663 71.2144 9.79208C71.2834 9.59754 71.3414 9.40143 71.3885 9.20375L71.6144 8.30008C71.6991 7.9361 71.8137 7.58624 71.958 7.2505C72.1023 6.91162 72.2843 6.60882 72.504 6.34211C72.7236 6.07227 72.9888 5.8589 73.2994 5.70201C73.61 5.54512 73.974 5.46668 74.3913 5.46668C74.9561 5.46668 75.4535 5.61102 75.8833 5.89969C76.3101 6.18836 76.6442 6.60569 76.8859 7.15166C77.1243 7.69449 77.2436 8.35185 77.2436 9.12374C77.2436 9.87367 77.1275 10.5248 76.8953 11.077C76.6631 11.6261 76.3242 12.056 75.8786 12.3666C75.4331 12.6741 74.8902 12.8404 74.2501 12.8655V11.1476C74.5859 11.1225 74.8651 11.0189 75.0879 10.837C75.3107 10.655 75.477 10.4181 75.5868 10.1263C75.6966 9.83131 75.7516 9.50184 75.7516 9.13786C75.7516 8.75819 75.6951 8.42559 75.5821 8.14005C75.466 7.85138 75.306 7.62546 75.102 7.4623C74.8949 7.29913 74.6533 7.21598 74.3772 7.21284C74.1262 7.21598 73.9191 7.28972 73.7559 7.43406C73.5896 7.57839 73.4516 7.78078 73.3418 8.04121C73.2288 8.29851 73.1284 8.59973 73.0405 8.94489L72.7581 10.0415C72.5542 10.8354 72.2451 11.4629 71.8309 11.9242C71.4136 12.3823 70.8598 12.6114 70.1695 12.6114C69.6015 12.6114 69.1042 12.4576 68.6775 12.1501C68.2507 11.8395 67.9197 11.4174 67.6844 10.884C67.4459 10.3506 67.3267 9.74659 67.3267 9.07197C67.3267 8.38794 67.4459 7.78862 67.6844 7.27403C67.9197 6.7563 68.2476 6.34996 68.6681 6.05501C69.0854 5.76006 69.5655 5.60788 70.1083 5.59847L70.1083 7.27874Z" fill="black"/>
</svg>
