<svg width="67" height="75" viewBox="0 0 67 75" fill="none" xmlns="http://www.w3.org/2000/svg">
<path d="M0.703125 71.6771V-1.87132H67.0002V71.6771C67.0002 73.0949 45.2464 61.0436 34.3696 54.8407L0.703125 71.6771Z" fill="#D2AA46"/>
<mask id="mask0_2930_318" style="mask-type:alpha" maskUnits="userSpaceOnUse" x="25" y="0" width="42" height="75">
<rect x="25" width="42" height="75" fill="#D9D9D9"/>
</mask>
<g mask="url(#mask0_2930_318)">
<path d="M0.703125 71.6771V-1.87132H67.0002V71.6771C67.0002 73.0949 45.2464 61.0436 34.3696 54.8407L0.703125 71.6771Z" fill="#B88C21"/>
</g>
<path d="M14.624 30.1872L8.28161 30.1872L8.47497 30.0068L8.47497 32.817L7.89488 32.817L7.89487 26.9129L8.47497 26.9129L8.47497 29.7232L8.28161 29.5427L14.624 29.5427L14.624 30.1872ZM14.6756 23.1662C14.6756 23.8108 14.5295 24.3866 14.2373 24.8936C13.9451 25.3921 13.5412 25.7917 13.0255 26.0925C12.5099 26.3847 11.9212 26.5308 11.2594 26.5308C10.5891 26.5308 10.0004 26.3847 9.49337 26.0925C8.97773 25.7917 8.57381 25.3921 8.28161 24.8936C7.98941 24.3866 7.84331 23.8108 7.84331 23.1662C7.84331 22.5217 7.98941 21.9459 8.28161 21.4388C8.57381 20.9318 8.97773 20.5321 9.49337 20.2399C10.0004 19.9477 10.5891 19.8017 11.2594 19.8017C11.9212 19.8017 12.5099 19.9477 13.0255 20.2399C13.5412 20.5321 13.9451 20.9318 14.2373 21.4388C14.5295 21.9459 14.6756 22.5217 14.6756 23.1662ZM14.0955 23.1662C14.0955 22.6506 13.9795 22.1865 13.7474 21.774C13.5068 21.3615 13.1716 21.0392 12.7419 20.8072C12.3122 20.5751 11.8181 20.4591 11.2594 20.4591C10.6922 20.4591 10.1981 20.5751 9.77697 20.8072C9.34727 21.0392 9.0164 21.3615 8.78436 21.774C8.54373 22.1865 8.42341 22.6506 8.42341 23.1662C8.42341 23.6819 8.54373 24.1459 8.78436 24.5585C9.0164 24.9624 9.34727 25.2847 9.77697 25.5253C10.1981 25.7573 10.6922 25.8734 11.2594 25.8734C11.8181 25.8734 12.3122 25.7573 12.7419 25.5253C13.1716 25.2847 13.5068 24.9624 13.7474 24.5585C13.9795 24.1459 14.0955 23.6819 14.0955 23.1662ZM14.624 17.7025L7.89487 17.7025L7.89487 11.8242L14.624 11.8242L14.624 12.4687L8.28161 12.4687L8.47497 12.2883L8.47497 17.2384L8.28161 17.058L14.624 17.058L14.624 17.7025Z" fill="white"/>
<path d="M12.3664 43.8923H17.1361V44.7044H12.3664V43.8923ZM12.4695 48.0561H17.8967V48.8812H11.5156V39.8574H17.7033V40.6824H12.4695V48.0561ZM22.5392 48.9456C21.8946 48.9456 21.3145 48.7995 20.7989 48.5073C20.2918 48.2151 19.8922 47.8112 19.6 47.2956C19.3078 46.7713 19.1617 46.1697 19.1617 45.4908C19.1617 44.8033 19.3078 44.2017 19.6 43.6861C19.8922 43.1704 20.2918 42.7708 20.7989 42.4872C21.3145 42.195 21.8946 42.0489 22.5392 42.0489C23.1322 42.0489 23.6607 42.1821 24.1248 42.4485C24.5975 42.7149 24.9713 43.106 25.2463 43.6216C25.5299 44.1286 25.6717 44.7517 25.6717 45.4908C25.6717 46.2213 25.5342 46.8444 25.2592 47.36C24.9842 47.8757 24.6104 48.271 24.1377 48.546C23.6736 48.8124 23.1408 48.9456 22.5392 48.9456ZM22.6037 48.1335C23.0849 48.1335 23.5146 48.0261 23.8928 47.8112C24.2795 47.5878 24.5803 47.2784 24.7951 46.883C25.0186 46.4791 25.1303 46.015 25.1303 45.4908C25.1303 44.958 25.0186 44.4939 24.7951 44.0986C24.5803 43.7032 24.2795 43.3982 23.8928 43.1833C23.5146 42.9599 23.0849 42.8481 22.6037 42.8481C22.131 42.8481 21.7056 42.9599 21.3274 43.1833C20.9493 43.3982 20.6485 43.7032 20.4251 44.0986C20.2016 44.4939 20.0899 44.958 20.0899 45.4908C20.0899 46.015 20.2016 46.4791 20.4251 46.883C20.6485 47.2784 20.9493 47.5878 21.3274 47.8112C21.7056 48.0261 22.131 48.1335 22.6037 48.1335ZM25.1561 48.8812V46.8444L25.2463 45.4779L25.1174 44.1115V39.316H26.0327V48.8812H25.1561ZM30.5282 48.8812V40.6824H27.357V39.8574H34.6534V40.6824H31.4822V48.8812H30.5282ZM38.1537 48.9456C37.449 48.9456 36.8302 48.7995 36.2974 48.5073C35.7646 48.2065 35.3478 47.7983 35.047 47.2827C34.7462 46.7584 34.5958 46.1611 34.5958 45.4908C34.5958 44.8205 34.7376 44.2275 35.0212 43.7118C35.3134 43.1962 35.7087 42.7923 36.2072 42.5001C36.7142 42.1993 37.2814 42.0489 37.9088 42.0489C38.5448 42.0489 39.1077 42.195 39.5975 42.4872C40.096 42.7708 40.487 43.1747 40.7706 43.6989C41.0542 44.2146 41.196 44.8119 41.196 45.4908C41.196 45.5338 41.1917 45.581 41.1831 45.6326C41.1831 45.6756 41.1831 45.7228 41.1831 45.7744H35.2919V45.0912H40.6933L40.3323 45.3619C40.3323 44.872 40.2249 44.438 40.01 44.0599C39.8038 43.6732 39.5202 43.3724 39.1592 43.1575C38.7983 42.9427 38.3815 42.8352 37.9088 42.8352C37.4447 42.8352 37.0279 42.9427 36.6584 43.1575C36.2888 43.3724 36.0009 43.6732 35.7947 44.0599C35.5884 44.4466 35.4853 44.8892 35.4853 45.3877V45.5295C35.4853 46.0451 35.597 46.5006 35.8204 46.8959C36.0525 47.2827 36.3705 47.5878 36.7744 47.8112C37.1869 48.0261 37.6553 48.1335 38.1795 48.1335C38.592 48.1335 38.9745 48.0604 39.3268 47.9143C39.6878 47.7682 39.9972 47.5448 40.255 47.244L40.7706 47.837C40.4698 48.1979 40.0917 48.4729 39.6362 48.662C39.1893 48.8511 38.6952 48.9456 38.1537 48.9456ZM45.8692 48.9456C45.1989 48.9456 44.5973 48.7995 44.0645 48.5073C43.5403 48.2065 43.1277 47.7983 42.8269 47.2827C42.5262 46.7584 42.3758 46.1611 42.3758 45.4908C42.3758 44.8119 42.5262 44.2146 42.8269 43.6989C43.1277 43.1833 43.5403 42.7794 44.0645 42.4872C44.5973 42.195 45.1989 42.0489 45.8692 42.0489C46.445 42.0489 46.965 42.1606 47.4291 42.3841C47.8931 42.6075 48.2584 42.9427 48.5248 43.3896L47.8416 43.8536C47.6095 43.5099 47.3216 43.2564 46.9779 43.0931C46.6341 42.9298 46.2603 42.8481 45.8564 42.8481C45.3751 42.8481 44.9411 42.9599 44.5544 43.1833C44.1676 43.3982 43.8625 43.7032 43.6391 44.0986C43.4156 44.4939 43.3039 44.958 43.3039 45.4908C43.3039 46.0236 43.4156 46.4877 43.6391 46.883C43.8625 47.2784 44.1676 47.5878 44.5544 47.8112C44.9411 48.0261 45.3751 48.1335 45.8564 48.1335C46.2603 48.1335 46.6341 48.0518 46.9779 47.8885C47.3216 47.7253 47.6095 47.476 47.8416 47.1409L48.5248 47.6049C48.2584 48.0432 47.8931 48.3784 47.4291 48.6104C46.965 48.8339 46.445 48.9456 45.8692 48.9456ZM53.6769 42.0489C54.2269 42.0489 54.7082 42.1563 55.1207 42.3712C55.5418 42.5774 55.8684 42.8954 56.1004 43.3251C56.3411 43.7548 56.4614 44.2962 56.4614 44.9494V48.8812H55.5461V45.0396C55.5461 44.3263 55.3656 43.7892 55.0047 43.4282C54.6523 43.0587 54.1539 42.8739 53.5093 42.8739C53.0281 42.8739 52.607 42.9727 52.246 43.1704C51.8936 43.3595 51.6186 43.6388 51.421 44.0083C51.2319 44.3693 51.1374 44.8076 51.1374 45.3232V48.8812H50.2221V39.316H51.1374V43.9697L50.9569 43.6216C51.1717 43.1317 51.5155 42.7493 51.9882 42.4743C52.4609 42.1907 53.0238 42.0489 53.6769 42.0489Z" fill="white"/>
<path d="M20.4056 30.6535V12.4218L21.5935 13.7201H16.0411V11.3168H23.1404V30.6535H20.4056ZM35.2705 30.8744C33.7604 30.8744 32.4068 30.4877 31.2098 29.7142C30.0311 28.9408 29.0919 27.8174 28.3921 26.3441C27.7107 24.8709 27.3701 23.0845 27.3701 20.9851C27.3701 18.8857 27.7107 17.0994 28.3921 15.6261C29.0919 14.1529 30.0311 13.0295 31.2098 12.256C32.4068 11.4826 33.7604 11.0958 35.2705 11.0958C36.7621 11.0958 38.1065 11.4826 39.3035 12.256C40.5006 13.0295 41.4398 14.1529 42.1211 15.6261C42.8025 17.0994 43.1432 18.8857 43.1432 20.9851C43.1432 23.0845 42.8025 24.8709 42.1211 26.3441C41.4398 27.8174 40.5006 28.9408 39.3035 29.7142C38.1065 30.4877 36.7621 30.8744 35.2705 30.8744ZM35.2705 28.4159C36.2833 28.4159 37.1673 28.1397 37.9223 27.5872C38.6958 27.0347 39.2943 26.206 39.7179 25.1011C40.1599 23.9961 40.3808 22.6241 40.3808 20.9851C40.3808 19.3461 40.1599 17.9741 39.7179 16.8692C39.2943 15.7642 38.6958 14.9355 37.9223 14.3831C37.1673 13.8306 36.2833 13.5543 35.2705 13.5543C34.2576 13.5543 33.3644 13.8306 32.5909 14.3831C31.8175 14.9355 31.2098 15.7642 30.7678 16.8692C30.3442 17.9741 30.1324 19.3461 30.1324 20.9851C30.1324 22.6241 30.3442 23.9961 30.7678 25.1011C31.2098 26.206 31.8175 27.0347 32.5909 27.5872C33.3644 28.1397 34.2576 28.4159 35.2705 28.4159ZM53.6953 30.8744C52.1852 30.8744 50.8316 30.4877 49.6346 29.7142C48.456 28.9408 47.5168 27.8174 46.817 26.3441C46.1356 24.8709 45.7949 23.0845 45.7949 20.9851C45.7949 18.8857 46.1356 17.0994 46.817 15.6261C47.5168 14.1529 48.456 13.0295 49.6346 12.256C50.8316 11.4826 52.1852 11.0958 53.6953 11.0958C55.187 11.0958 56.5313 11.4826 57.7284 12.256C58.9254 13.0295 59.8646 14.1529 60.546 15.6261C61.2274 17.0994 61.5681 18.8857 61.5681 20.9851C61.5681 23.0845 61.2274 24.8709 60.546 26.3441C59.8646 27.8174 58.9254 28.9408 57.7284 29.7142C56.5313 30.4877 55.187 30.8744 53.6953 30.8744ZM53.6953 28.4159C54.7082 28.4159 55.5921 28.1397 56.3472 27.5872C57.1206 27.0347 57.7191 26.206 58.1427 25.1011C58.5847 23.9961 58.8057 22.6241 58.8057 20.9851C58.8057 19.3461 58.5847 17.9741 58.1427 16.8692C57.7191 15.7642 57.1206 14.9355 56.3472 14.3831C55.5921 13.8306 54.7082 13.5543 53.6953 13.5543C52.6824 13.5543 51.7892 13.8306 51.0158 14.3831C50.2423 14.9355 49.6346 15.7642 49.1926 16.8692C48.769 17.9741 48.5573 19.3461 48.5573 20.9851C48.5573 22.6241 48.769 23.9961 49.1926 25.1011C49.6346 26.206 50.2423 27.0347 51.0158 27.5872C51.7892 28.1397 52.6824 28.4159 53.6953 28.4159Z" fill="white"/>
</svg>
